#format: frame checksums
#version: 1
#hash: MD5
#tb 0: 1001/30000
#stream#, dts,        pts, duration,     size, hash
0,          0,          0,        1,    61740, fccc18714a9ed3840bd6e9c6ca4858e5
0,          1,          1,        1,    61740, a8f6eb43cf6ed670eb180c5051de06f7
0,          2,          2,        1,    61740, 6a9baf9eae6e799deaefd6e801f7ace3
0,          3,          3,        1,    61740, 3bb44c8a45aab088c9887c11bc6a4acf
0,          4,          4,        1,    61740, 0907a7e926be9e54bbb087251b4715d9
0,          5,          5,        1,    61740, 10fef2876c20eb3f9570c0c23e5acc69
0,          6,          6,        1,    61740, ffe5d2b6d874af0f878075c97940ccfb
0,          7,          7,        1,    61740, d10fae10144ff88075048827203f7e9c
0,          8,          8,        1,    61740, bdf35736ac625f2178902c1f24d513c0
0,          9,          9,        1,    61740, 30882bf2c21785be6234b637c4b16b28
